<?xml version="1.0" encoding="utf-8"?>
<!-- Generator: Adobe Illustrator 16.0.0, SVG Export Plug-In . SVG Version: 6.00 Build 0)  -->
<!DOCTYPE svg PUBLIC "-//W3C//DTD SVG 1.1//EN" "http://www.w3.org/Graphics/SVG/1.1/DTD/svg11.dtd">
<svg version="1.1" id="Layer_1" xmlns="http://www.w3.org/2000/svg" xmlns:xlink="http://www.w3.org/1999/xlink" x="0px" y="0px"
	 width="50px" height="50px" viewBox="103 103 50 50" enable-background="new 103 103 50 50" xml:space="preserve">
<g>
	<g>
		<circle fill="#4D834F" cx="128" cy="128" r="25"/>
		<g>
			<g>
				<path fill="#96CD86" d="M140.801,121.628c-0.818-1.637-2.806-2.304-4.445-1.495c0.575-0.927,0.675-2.118,0.154-3.167
					c-0.799-1.611-2.754-2.27-4.365-1.47c-0.124,0.062-0.243,0.131-0.356,0.206c0.005-0.57-0.118-1.15-0.39-1.695
					c-0.919-1.853-3.166-2.608-5.018-1.69c-0.183,0.09-0.366,0.179-0.515,0.309c-0.235,0.205,0.042,0.337,0.159,0.294
					c1.64-0.606,3.506,0.111,4.302,1.712c0.362,0.73,0.443,1.527,0.284,2.267c-0.079,0.367-0.241,0.707-0.409,1.043
					c-0.23,0.461,0.277,0.607,0.574,0.29c0.394-0.42,0.655-0.878,0.847-1.46c0.994-0.818,3.253-0.676,3.954,0.739
					c0.528,1.064,0.37,2.289-0.306,3.172c-0.271,0.355,0.354,0.184,0.596,0.062c1.492-0.652,3.248-0.031,3.983,1.441
					c0.638,1.275,0.307,2.781-0.712,3.682c-0.196,0.173-0.165,0.392,0.175,0.222C140.956,125.269,141.622,123.271,140.801,121.628z"
					/>
			</g>
			<g>
				<path fill="#FFFFFF" d="M126.838,150.3c0.005,0.003,0.011,0.003,0.016,0.003C126.849,150.303,126.843,150.303,126.838,150.3z"/>
				<path fill="#FFFFFF" d="M123.518,128.303c-0.218,0.305-0.491,0.583-0.824,0.816c1.898,2.639,4.396,5.638,5.966,5.638
					c1.275,0,2.513-1.745,3.484-3.646c-0.622,0.12-1.276,0.188-1.953,0.188C127.209,131.3,124.651,130.067,123.518,128.303z"/>
				<path fill="#96CD86" d="M133.955,149.526c2.514-0.721,4.722-1.811,6.532-3.011c0.359-0.239-2.165-3.185-7.111-3.185
					C132.105,143.331,131.031,146.604,133.955,149.526z"/>
				<path fill="#96CD86" d="M128.763,143.585c-2.497,0-4.569,4.864-1.038,6.742c1.54,0.068,3.536-0.193,4.316-0.354
					C127.441,145.374,130.075,143.585,128.763,143.585z"/>
				<path fill="#FFFFFF" d="M128,105.661c-12.334,0-22.336,10-22.336,22.335c0,6.302,2.612,11.995,6.811,16.057
					c3.13-1.494,8.139-2.517,13.878-2.683v-5.131l-5.317-6.403c-0.378,0.086-0.771,0.146-1.186,0.146
					c-2.32,0-4.196-1.437-4.196-3.21c0-0.143,0.027-0.28,0.051-0.417c-1.579-0.657-2.688-2.211-2.688-4.028
					c0-2.195,1.627-3.995,3.738-4.299c-0.07-0.314-0.114-0.634-0.114-0.968c0-2.41,1.952-4.364,4.362-4.364
					c1.075,0,2.045,0.404,2.803,1.049c0.597-1.755,2.238-3.023,4.193-3.023c2.11,0,3.867,1.472,4.324,3.445
					c0.496-0.202,1.036-0.318,1.604-0.318c2.366,0,4.28,1.915,4.28,4.281c0,0.294-0.028,0.579-0.087,0.857
					c0.114-0.009,0.218-0.034,0.332-0.034c2.317,0,4.199,1.881,4.199,4.199c0,2.317-1.882,4.198-4.199,4.198
					c-0.382,0-0.741-0.066-1.09-0.161c-0.328,1.22-1.287,2.283-2.646,3.025l-4.907,6.358v4.804
					c5.676,0.18,10.611,1.199,13.709,2.683c4.204-4.062,6.815-9.755,6.815-16.06C150.335,115.661,140.334,105.661,128,105.661z"/>
				<path fill="#96CD86" d="M121.424,149.346c0-3.308,4.324-6.38,2.868-6.38c-5.344,0-9.303,3.185-8.948,3.427
					C117.061,147.562,119.477,148.825,121.424,149.346z"/>
			</g>
		</g>
	</g>
</g>
</svg>
